<svg xmlns="http://www.w3.org/2000/svg" viewBox="0 0 200 200">
  <defs>
    <linearGradient id="logoGrad" x1="20%" y1="0%" x2="80%" y2="100%">
      <stop offset="0%" stop-color="#1a6fd4"/>
      <stop offset="100%" stop-color="#002d80"/>
    </linearGradient>
  </defs>
  <rect width="200" height="200" rx="44" ry="44" fill="#FFFFFF"/>
  <path fill="url(#logoGrad)" fill-rule="evenodd" transform="translate(-5.5, 0)" d="M 84.520,66.440 C 84.492,66.376 84.465,66.311 84.400,66.311 C 84.336,66.311 84.308,66.311 84.308,66.339 L 63.912,94.160 C 63.848,94.224 63.884,94.316 63.940,94.380 C 63.976,94.408 64.004,94.408 64.032,94.408 L 73.204,94.408 C 73.388,94.408 73.452,94.500 73.452,94.656 L 73.452,176.886 C 73.452,177.282 73.296,177.374 72.928,177.226 C 51.188,167.741 33.883,149.958 26.247,127.289 C 4.958,64.011 61.400,2.638 126.362,18.830 C 126.454,18.830 126.481,18.922 126.481,18.986 L 126.481,53.523 C 126.481,53.643 126.454,53.735 126.389,53.827 C 122.838,58.703 119.241,63.551 115.690,68.400 C 115.653,68.464 115.561,68.464 115.506,68.427 C 115.469,68.400 115.441,68.372 115.441,68.308 L 115.441,28.251 C 115.441,28.122 115.377,28.067 115.257,28.067 C 72.008,22.694 33.368,55.299 32.908,99.404 C 32.687,122.505 43.635,144.162 62.008,158.081 C 62.072,158.146 62.164,158.118 62.192,158.054 C 62.192,158.054 62.228,158.026 62.228,157.989 L 62.228,105.880 C 62.228,105.761 62.127,105.669 62.008,105.669 L 41.952,105.632 C 41.860,105.632 41.795,105.577 41.795,105.485 C 41.795,105.448 41.832,105.420 41.832,105.393 L 95.440,31.931 C 95.661,31.655 95.753,31.682 95.753,32.023 L 95.753,103.939 C 95.818,103.810 95.882,103.700 95.937,103.608 L 126.178,62.420 C 126.297,62.236 126.362,62.263 126.362,62.475 L 126.371,62.806 L 126.380,63.367 L 126.380,63.542 L 126.389,64.444 L 126.481,133.637 C 126.481,133.664 126.546,133.729 126.573,133.729 C 126.638,133.729 126.665,133.701 126.665,133.701 L 147.098,105.853 C 147.154,105.788 147.126,105.696 147.062,105.669 C 147.034,105.632 147.006,105.632 146.970,105.632 L 137.770,105.669 C 137.632,105.669 137.521,105.558 137.521,105.420 L 137.521,22.694 C 137.521,22.666 137.586,22.602 137.650,22.602 L 137.678,22.602 C 174.330,38.067 195.040,76.468 187.891,115.384 C 179.206,162.902 131.633,193.078 84.612,181.146 C 84.465,181.118 84.400,181.026 84.400,180.870 L 84.400,146.554 C 84.400,146.425 84.428,146.333 84.520,146.213 C 88.145,141.310 91.733,136.397 95.348,131.456 C 95.385,131.429 95.440,131.401 95.505,131.429 C 95.532,131.456 95.532,131.493 95.532,131.521 L 95.532,171.697 C 95.532,171.826 95.624,171.946 95.753,171.946 C 120.290,175.138 144.366,165.993 160.622,147.161 C 188.103,115.292 182.307,67.176 148.994,41.959 C 148.938,41.931 148.846,41.931 148.810,41.986 C 148.782,42.023 148.782,42.051 148.782,42.078 L 148.782,94.224 C 148.782,94.325 148.865,94.408 148.966,94.408 L 169.086,94.408 C 169.151,94.408 169.206,94.472 169.206,94.528 C 169.206,94.564 169.206,94.592 169.178,94.592 L 115.469,168.174 C 115.414,168.238 115.349,168.266 115.285,168.201 C 115.257,168.201 115.257,168.146 115.257,168.109 L 115.257,96.616 C 115.257,96.552 115.230,96.524 115.165,96.496 L 115.073,96.496 L 115.009,96.524 L 95.753,122.772 L 95.753,122.781 L 95.698,122.854 L 84.768,137.749 C 84.741,137.777 84.676,137.814 84.612,137.777 C 84.584,137.749 84.584,137.685 84.584,137.657"/>
</svg>